<svg width="186" height="199" viewBox="0 0 186 199" fill="none" xmlns="http://www.w3.org/2000/svg">
<g filter="url(#filter0_d)">
<path fill-rule="evenodd" clip-rule="evenodd" d="M95.8086 43.8502C98.0641 41.1999 99.5906 37.9519 99.3355 34.3125C98.6005 23.8262 84.019 26.1331 81.1826 31.4256C78.3462 36.7182 78.6833 50.1432 82.3491 51.0891C83.811 51.4663 86.9253 50.5423 90.0949 48.6297L88.1054 62.72H99.8528L95.8086 43.8502Z" fill="#B28B67"/>
<path fill-rule="evenodd" clip-rule="evenodd" d="M75.9783 24.0886C76.2216 23.2326 76.8759 22.4997 77.7577 22.2823C77.9715 22.2295 78.1924 22.2082 78.4124 22.2171C78.4913 22.2203 78.5135 22.243 78.5504 22.1878C78.5777 22.1468 78.5783 22.0467 78.5896 21.9986C78.6246 21.8489 78.6684 21.7011 78.7225 21.5571C78.907 21.0659 79.2171 20.6312 79.5909 20.2651C80.29 19.58 81.2347 19.1073 82.2161 19.0217C82.7533 18.9749 83.2865 19.0623 83.7943 19.2372C84.0573 19.3278 84.3122 19.4405 84.5605 19.5652C84.6353 19.6027 84.8778 19.7865 84.9528 19.7746C85.0357 19.7615 85.2022 19.5553 85.2696 19.5036C86.1024 18.864 87.1308 18.6125 88.1681 18.6202C89.3389 18.6288 90.4663 18.6874 91.4428 19.4019C91.6495 19.5532 91.8464 19.7188 92.0338 19.8932C92.1325 19.985 92.2281 20.0802 92.3193 20.1794C92.3743 20.2393 92.4279 20.3005 92.4795 20.3634C92.567 20.47 92.5529 20.5051 92.6754 20.4306C93.1454 20.1448 93.6899 20.0111 94.2384 20.0786C94.5642 20.1187 94.8811 20.2166 95.1819 20.3455C95.2844 20.3893 95.5215 20.5643 95.6307 20.566C95.739 20.5677 95.9728 20.4055 96.0844 20.3643C96.6871 20.1415 97.3367 20.0866 97.9701 20.1896C98.6235 20.2957 99.2654 20.5567 99.819 20.9173C100.085 21.0908 100.318 21.283 100.504 21.541C100.585 21.6524 100.658 21.7702 100.749 21.8734C100.802 21.9339 100.908 21.9959 100.937 22.0725C100.92 22.0266 101.652 21.7442 101.721 21.7262C102.088 21.63 102.463 21.6495 102.823 21.7682C103.501 21.9913 104.083 22.4918 104.562 23.0049C104.808 23.2684 105.023 23.5597 105.206 23.8701C105.293 24.0188 105.373 24.1717 105.447 24.3279C105.482 24.4035 105.506 24.4982 105.552 24.5663C105.613 24.6541 105.653 24.6558 105.762 24.6941C106.317 24.8885 106.822 25.2176 107.207 25.6623C107.596 26.1122 107.849 26.6662 107.955 27.2497C107.961 27.284 107.965 27.4265 107.985 27.4451C108.012 27.4707 108.124 27.4594 108.166 27.4643C108.312 27.4815 108.457 27.507 108.6 27.5409C108.864 27.6034 109.121 27.6954 109.363 27.8156C110.31 28.2845 110.987 29.1636 111.318 30.1527C111.666 31.1907 111.66 32.38 111.244 33.3986C111.177 33.5632 111.097 33.7229 111.004 33.874C110.946 33.9667 110.927 33.9669 110.965 34.0642C111.006 34.1725 111.083 34.2777 111.132 34.3835C111.294 34.7286 111.406 35.0948 111.478 35.4687C111.595 36.082 111.653 36.7266 111.537 37.3447C111.484 37.6316 111.39 37.9122 111.248 38.1678C111.175 38.2981 111.09 38.4217 110.994 38.536C110.945 38.5954 110.892 38.6521 110.836 38.7064C110.805 38.7374 110.763 38.7646 110.736 38.7993C110.67 38.8838 110.657 38.8143 110.691 38.9384C110.738 39.1118 110.845 39.283 110.911 39.4518C110.979 39.6258 111.04 39.8021 111.096 39.9802C111.21 40.3408 111.305 40.7079 111.365 41.0814C111.481 41.7984 111.46 42.5623 111.122 43.2204C110.977 43.5018 110.769 43.7487 110.517 43.9408C110.394 44.0348 110.26 44.1158 110.12 44.1823C110.048 44.2165 109.956 44.2312 109.923 44.3009C109.888 44.3759 109.94 44.5248 109.952 44.6086C110.056 45.3379 110.108 46.1036 109.892 46.8182C109.693 47.4764 109.253 48.0576 108.683 48.4423C107.577 49.1887 106.086 49.1467 104.924 48.5491C104.621 48.3933 104.338 48.1999 104.085 47.9718C103.441 48.8394 102.117 48.8119 101.176 48.5647C100.003 48.2568 99.0629 47.4408 98.5209 46.3687C97.7799 47.2718 96.2248 46.9788 95.7109 45.9991C95.5851 45.7593 95.5105 45.4951 95.4738 45.2277C95.4545 45.0871 95.4668 44.9452 95.4523 44.8057C95.4338 44.6279 95.3151 44.4552 95.247 44.2832C95.1142 43.9486 95.0317 43.6029 95.0282 43.2419C95.0264 43.0534 95.0502 42.8697 95.0681 42.6828C95.0842 42.5145 95.0376 42.3577 95.0111 42.1916C95.3117 42.2411 95.678 42.16 95.9612 42.0727C96.2392 41.9871 96.4995 41.7615 96.6957 41.5555C97.1512 41.0772 97.4295 40.4502 97.6198 39.8262C98.0376 38.4565 97.8663 36.8132 96.4902 36.0615C95.8491 35.7113 93.9285 35.7125 93.1649 35.8855C92.362 36.0675 91.4519 37.8409 91.4071 38.0076C91.3794 38.1108 91.3933 38.2385 91.2986 38.3072C91.0906 38.4584 90.7474 38.1961 90.594 38.0666C90.3292 37.8432 90.1403 37.5459 89.9767 37.2446C89.6202 36.5881 89.3328 35.8841 89.1298 35.1655C88.9733 34.6114 88.8733 34.0401 88.6687 33.5001C88.4652 32.9629 88.1443 32.4827 87.6455 32.1783C87.1027 31.8472 86.4807 31.6728 85.8849 31.4648C85.2943 31.2586 84.714 31.0065 84.2562 30.569C84.1555 30.4728 84.0578 30.3705 83.9768 30.2573C83.9128 30.1679 83.8496 29.9967 83.7521 29.94C83.6006 29.8518 83.3795 30.0811 83.2485 30.1644C82.6022 30.5753 82.063 31.1484 81.6281 31.7745C81.1956 32.3972 80.8408 32.9963 80.5524 33.6916C80.3385 34.2073 80.205 34.8677 79.8288 35.2903C79.6608 35.479 78.4124 35.5932 78.008 35.4284C77.6037 35.2637 77.1505 34.8359 77.0147 34.5678C76.8758 34.2935 76.8426 33.992 76.902 33.6916C76.9369 33.5149 77.0082 33.3498 77.0472 33.1763C77.0801 33.0305 77.1099 32.8926 77.1808 32.7591C77.3151 32.5059 77.5447 32.324 77.8215 32.2479C77.5334 31.982 77.2947 31.6639 77.1295 31.3083C76.9579 30.9389 76.8124 30.4897 76.7712 30.0842C76.7376 29.7549 76.7894 29.4137 76.9695 29.1307C77.1584 28.8338 77.4931 28.6401 77.7826 28.4549C77.3403 28.1085 76.9618 27.6872 76.6505 27.2207C76.0453 26.3136 75.6709 25.1701 75.9783 24.0886Z" fill="#191847"/>
<path fill-rule="evenodd" clip-rule="evenodd" d="M33.5244 183.093C39.796 169.198 44.3314 157.098 46.152 150.714C49.2692 139.784 51.6405 130.165 52.2399 126.573C53.6691 118.008 41.2454 117.509 39.6032 121.766C37.1177 128.209 32.7787 149.378 27.5649 181.353L33.5244 183.093ZM106.27 139.485C100.516 137.208 80.3657 130.083 70.6471 128.067C67.8544 127.488 65.1475 126.95 62.6027 126.463C55.0384 125.018 51.1194 138.679 58.4047 139.728C76.548 142.342 102.269 145.042 104.47 145.345C107.555 145.769 109.887 140.916 106.27 139.485Z" fill="#B28B67"/>
<path fill-rule="evenodd" clip-rule="evenodd" d="M57.96 122.704L89.0842 106.843V103.39H85.3827C55.2714 111.071 39.8846 115.994 39.2222 118.158C39.2151 118.181 39.2085 118.204 39.2026 118.227C39.1875 118.247 39.1725 118.267 39.1579 118.288C33.1905 126.503 29.6166 166.613 28.4436 169.617L39.8785 171.324C44.2527 155.087 58.2474 143.775 57.8756 124.327C57.976 123.757 58.0014 123.216 57.96 122.704Z" fill="#1F28CF"/>
<path fill-rule="evenodd" clip-rule="evenodd" d="M86.4983 132.124C89.3461 131.553 91.9686 131.044 94.2126 130.65C108.708 128.105 112.934 120.337 110.435 103.39L83.7286 103.39C79.366 104.645 56.6938 114.163 44.9305 119.225C37.1449 122.576 39.5992 134.654 44.0082 137.798C44.0321 137.99 44.1115 138.121 44.2528 138.18C67.9699 148.02 86.7324 142.857 93.0001 144.507L95.8992 135.352L86.4983 132.124Z" fill="#2B44FF"/>
<path fill-rule="evenodd" clip-rule="evenodd" d="M104.301 138.031C105.855 138.18 106.958 138.414 107.611 138.732C108.405 139.12 109.498 139.818 110.892 140.826C110.443 141.747 106.41 150.026 98.7932 165.663C96.3463 165.267 95.3765 164.333 95.8838 162.859C96.3912 161.385 96.8004 160.155 97.1114 159.168L97.5914 145.112C97.6007 144.842 97.8272 144.63 98.0975 144.64C98.1021 144.64 98.1067 144.64 98.1113 144.64L100.272 144.777C101.499 143.783 102.309 142.883 102.701 142.078C103.019 141.424 103.195 140.392 103.229 138.982L103.229 138.982C103.242 138.441 103.69 138.013 104.231 138.026C104.254 138.027 104.277 138.028 104.301 138.031Z" fill="#E4E4E4"/>
<path fill-rule="evenodd" clip-rule="evenodd" d="M36.3785 180.517C36.9262 181.98 37.2 183.075 37.2 183.802C37.2 184.685 37.0529 185.975 36.7588 187.67C35.7349 187.67 26.5325 187.67 9.15161 187.67C8.4342 185.296 8.84833 184.014 10.394 183.825C11.9397 183.635 13.2237 183.464 14.2461 183.312L27.0776 177.585C27.3245 177.475 27.6139 177.586 27.724 177.833C27.7259 177.838 27.7277 177.842 27.7295 177.846L28.5543 179.849C29.9852 180.517 31.1479 180.851 32.0425 180.851C32.7694 180.851 33.7731 180.558 35.0539 179.97L35.0539 179.97C35.5453 179.744 36.1264 179.96 36.3517 180.452C36.3614 180.474 36.3704 180.495 36.3785 180.517Z" fill="#E4E4E4"/>
<path fill-rule="evenodd" clip-rule="evenodd" d="M60.673 95.61L46.8073 109.151C42.7729 110.874 39.4672 112.776 36.8904 114.858C36.3109 115.558 35.68 116.898 38.4065 116.299C41.133 115.699 44.0278 115.19 44.5402 116.078C45.0527 116.965 43.5427 118.326 44.4898 119.487C45.1212 120.262 47.2445 117.798 50.8598 112.097L65.2784 103.587L60.673 95.61ZM122.218 97.5197L111.989 97.56C118.305 117.97 121.714 128.8 122.218 130.049C123.35 132.859 120.954 137.138 119.929 139.438C123.267 140.933 122.911 135.395 127.122 137.357C130.966 139.147 133.89 142.39 138.331 139.647C138.877 139.31 139.475 138.04 138.029 137.048C134.428 134.576 129.238 130.249 128.537 128.825C127.581 126.883 125.474 116.448 122.218 97.5197Z" fill="#B28B67"/>
<path fill-rule="evenodd" clip-rule="evenodd" d="M93.1494 54.5527L88.9168 53.8259C81.6298 72.0492 68.9073 88.6073 50.7495 103.5L64.4705 120.188C82.6262 98.9823 93.8174 77.1039 93.1494 54.5527Z" fill="#191847"/>
<path fill-rule="evenodd" clip-rule="evenodd" d="M111.6 107.8H73.9106C82.6424 86.5463 87.0083 68.4916 87.0083 53.6358L98.3774 51.94C107.312 66.3256 109.836 84.0372 111.6 107.8Z" fill="#DDE3E9"/>
<path fill-rule="evenodd" clip-rule="evenodd" d="M98.6178 51.9481C98.6164 51.9454 98.6149 51.9427 98.6134 51.94L97.8712 51.94C96.9832 51.9706 95.6307 52.0258 93.8136 52.1055L91.0664 59.9647C90.7758 69.5469 89.0788 88.8576 85.9754 117.897H110.682C110.617 119.903 110.51 121.927 110.361 123.97H128.731C125.984 92.9353 115.949 68.9253 98.6269 51.94L98.6178 51.9481V51.9481Z" fill="#2F3676"/>
<path fill-rule="evenodd" clip-rule="evenodd" d="M109.05 92.2342C108.347 104.736 106.586 113.355 103.768 118.09H110.675C110.978 109.095 110.436 100.476 109.05 92.2342V92.2342Z" fill="black" fill-opacity="0.1"/>
<path fill-rule="evenodd" clip-rule="evenodd" d="M105.183 102.9L93.0001 97.2303V102.9H105.183Z" fill="white" fill-opacity="0.2"/>
</g>
<defs>
<filter id="filter0_d" x="-6" y="-3" width="200" height="210" filterUnits="userSpaceOnUse" color-interpolation-filters="sRGB">
<feFlood flood-opacity="0" result="BackgroundImageFix"/>
<feColorMatrix in="SourceAlpha" type="matrix" values="0 0 0 0 0 0 0 0 0 0 0 0 0 0 0 0 0 0 127 0"/>
<feOffset dx="1" dy="4"/>
<feGaussianBlur stdDeviation="3.5"/>
<feColorMatrix type="matrix" values="0 0 0 0 0.733333 0 0 0 0 0.733333 0 0 0 0 0.733333 0 0 0 0.25 0"/>
<feBlend mode="normal" in2="BackgroundImageFix" result="effect1_dropShadow"/>
<feBlend mode="normal" in="SourceGraphic" in2="effect1_dropShadow" result="shape"/>
</filter>
</defs>
</svg>
